<?xml version="1.0" encoding="UTF-8"?>
<svg id="Diseños" xmlns="http://www.w3.org/2000/svg" viewBox="0 0 500 500">
  <defs>
    <style>
      .cls-1 {
        fill: #ff7f00;
      }
    </style>
  </defs>
  <g>
    <path class="cls-1" d="M275.59,359.38s0,.01.01.02c0,0,0,0,.01.01l-.03-.03Z"/>
    <path class="cls-1" d="M275.61,359.4c-1.29-1.41-3.54-3.52-5.07-4.87-.69-.67.17.15-1.46-1.39-26.17-24.75-33.56-64.52-34.96-105.82,0-.02,0-.05,0-.07-.02-.71-.04-1.4-.05-2.12v-.07c-2.28-67.38-50.88-121.22-110.5-121.22S12.98,180.31,12.98,249.98v94.64c0,17.09,11.91,31,26.77,31.53h222.75c3.37,0,7.43.11,9.88-.64,3.25-.99,5.62-5.05,5.62-9.29,0-2.64-.91-5.05-2.38-6.83ZM150.36,281.53h-52.5c-3.94,0-6.51-4.15-4.74-7.67,6.55-13.08,19.72-39.43,26.25-52.49,0,0,0,0,0,0,1.95-3.91,7.53-3.91,9.49,0,0,0,26.25,52.49,26.25,52.49,1.76,3.53-.8,7.67-4.74,7.67Z"/>
  </g>
  <g>
    <path class="cls-1" d="M224.41,140.62s0-.01-.01-.02c0,0,0,0-.01-.01l.03.03Z"/>
    <path class="cls-1" d="M460.26,123.84h-222.75c-3.37,0-7.43-.11-9.88.64-3.25.99-5.62,5.05-5.62,9.29,0,2.64.91,5.05,2.38,6.83,1.29,1.41,3.54,3.52,5.07,4.87.69.67-.17-.15,1.46,1.39,26.17,24.75,33.56,64.52,34.96,105.82,0,.02,0,.05,0,.07.02.71.04,1.4.05,2.12v.07c2.28,67.38,50.88,121.22,110.5,121.22s110.58-56.48,110.59-126.15v-94.64c0-17.09-11.91-31-26.77-31.53ZM406.89,226.15c-6.55,13.08-19.71,39.43-26.25,52.49,0,0,0,0,0,0-1.95,3.91-7.53,3.91-9.49,0,0,0-26.25-52.49-26.25-52.49-1.76-3.53.8-7.67,4.74-7.67h52.5c3.94,0,6.51,4.15,4.74,7.67Z"/>
  </g>
</svg>