<?xml version="1.0" encoding="UTF-8"?>
<svg id="Capa_1" data-name="Capa 1" xmlns="http://www.w3.org/2000/svg" viewBox="0 0 102.12 140.26">
  <defs>
    <style>
      .cls-1 {
        fill: #000;
      }

      .cls-1, .cls-2 {
        stroke-width: 0px;
      }

      .cls-2 {
        fill: #ef7d16;
      }
    </style>
  </defs>
  <path class="cls-2" d="M44.37,29.24c11.14,3.48,20.13,6.36,26.42,17.02,6.74,11.43,4.7,24.2,6.75,36.75,2.29,14.01,11.02,22.02,19.07,32.9,6.41,8.66,9.23,18.62-2.86,22.27C47.34,152.18-24.64,92.5,8.4,44.91c11.73,1.88,34.96,1.48,35.97-15.66h0Z"/>
  <path class="cls-1" d="M44.37,29.24c-1.01,17.15-24.24,17.54-35.97,15.66,6.44-7.77,10.65-10.11,10.89-20.5.18-7.82,2.13-21.05,11.35-23.86,4-1.22,8.42-.64,8.95,4.46.5,4.85-5.26,7.75-6.99,11.8-5.05,11.81,3.11,11.87,11.77,12.43h0Z"/>
</svg>