<?xml version="1.0" encoding="UTF-8"?>
<svg id="Diseños" xmlns="http://www.w3.org/2000/svg" viewBox="0 0 1920 1080">
  <defs>
    <style>
      .cls-1 {
        fill: #ff7f00;
      }
    </style>
  </defs>
  <g id="Principal">
    <g>
      <g>
        <g>
          <path d="M745.44,419.84v188.87h55.86v-188.87h-55.86Z"/>
          <path d="M894.15,419.84v18.85c13.27-16.76,34.95-18.87,55.2-18.52,21.64,1.05,36.26,7.7,44.99,22.01,12.92-17.8,40.58-23.06,62.58-22.01,35.61,1.4,64.15,22.36,63.45,82.06v106.48h-55.51v-106.13c0-22.69-10.82-31.07-23.39-31.42-13.62-.35-33.86,9.08-34.21,30.02v107.52h-55.51v-106.13c0-22.69-10.82-31.07-23.39-31.42-13.61-.35-31.42,9.43-31.42,30.72v106.83h-58.3v-188.87h55.51Z"/>
          <path d="M1342.76,535.4h-135.45c6.63,17.45,23.74,26.18,40.5,26.53,12.22,0,23.74-4.19,31.77-12.92h59.7c-14.66,41.89-54.46,60.12-94.26,59.42-47.83-1.05-95.31-30.8-95.31-94.68s49.49-93.93,98.72-93.58c48.53.35,96.43,29.34,96.43,93.58,0,7.68-.7,14.66-2.09,21.64ZM1284.8,492.46c-5.24-18.85-20.6-27.58-38.4-27.58-16.41,0-31.42,9.08-37.01,27.58h75.41Z"/>
          <path d="M1426.89,419.84v18.85c13.27-16.76,35.99-18.52,56.24-18.52,53.76.7,68.04,37.37,67.69,84.5v104.03h-55.86v-103.68c0-25.48-14.31-37.01-29.32-37.01-16.41,0-35.96,13.96-35.96,38.05v102.64h-58.3v-188.87h55.51Z"/>
          <path d="M1690.12,419.85v49.55h-39.45v71.46c0,16.52,12.22,21.68,25.49,21.68,5.24,0,10.82-.69,15.71-1.72l1.75,44.73c-10.82,1.72-20.95,2.75-30.02,2.75-42.24.34-67.73-18.92-67.73-67.44l1.33-71.05-26.12-.41v-49.55"/>
          <path d="M1850.02,439.39v-19.55h54.81v188.87h-54.81v-18.85c-12.92,16.06-31.42,18.93-49.57,18.93-60.05,0-91.12-45.81-90.77-97.83.7-51.67,30.62-90.79,91.71-90.79,18.5,0,36.41,3.51,48.63,19.22ZM1850.02,513.05c0-25.14-19.2-45.73-42.94-45.73-27.93,0-41.89,21.99-42.24,45.03-.35,22.69,13.97,46.08,42.24,46.08,23.74,0,42.94-20.25,42.94-45.38Z"/>
        </g>
        <path d="M576.37,588.55v71.49h-54.18v-240.25h54.18v18.56c12.85-15.81,31.26-18.6,49.32-18.6,59.74,0,90.64,45.06,90.3,96.27-.69,50.87-30.21,92.8-90.99,92.8-18.41,0-36.12-6.19-48.62-20.28ZM576.37,513.96c0,24.75,19.1,45.02,42.72,45.02,27.78,0,41.68-22,42.02-44.34.35-22.34-13.89-45.37-42.02-45.37-23.62,0-42.72,19.93-42.72,44.68Z"/>
      </g>
      <g>
        <g>
          <path class="cls-1" d="M265.23,644.25s0,.01.01.02c0,0,0,0,.01.01l-.02-.03Z"/>
          <path class="cls-1" d="M265.24,644.27c-1.23-1.34-3.37-3.35-4.83-4.63-.66-.64.17.15-1.39-1.33-24.92-23.56-31.95-61.44-33.28-100.76,0-.02,0-.05,0-.07-.02-.67-.03-1.34-.05-2.02v-.07c-2.17-64.16-48.45-115.42-105.22-115.42s-105.29,53.78-105.3,120.12v90.12c0,16.27,11.34,29.52,25.49,30.03h212.09c3.21,0,7.07.1,9.41-.61,3.09-.94,5.35-4.8,5.35-8.85,0-2.52-.86-4.81-2.27-6.5ZM145.98,570.13h-49.99c-3.75,0-6.2-3.95-4.52-7.31,6.23-12.45,18.77-37.54,24.99-49.97,0,0,0,0,0,0,1.86-3.72,7.17-3.72,9.03,0,0,0,25,49.98,25,49.98,1.68,3.36-.76,7.31-4.52,7.31Z"/>
        </g>
        <g>
          <path class="cls-1" d="M216.49,435.97s0-.01-.01-.02c0,0,0,0-.01-.01l.02.03Z"/>
          <path class="cls-1" d="M441.06,419.99h-212.09c-3.21,0-7.07-.1-9.41.61-3.09.94-5.35,4.8-5.35,8.85,0,2.52.86,4.81,2.27,6.5,1.23,1.34,3.37,3.35,4.83,4.63.66.64-.17-.15,1.39,1.33,24.92,23.56,31.95,61.44,33.28,100.76,0,.02,0,.05,0,.07.02.67.03,1.34.05,2.02v.07c2.17,64.16,48.45,115.42,105.22,115.42s105.29-53.78,105.3-120.12v-90.12c0-16.27-11.34-29.52-25.49-30.03ZM390.24,517.4c-6.23,12.45-18.77,37.54-24.99,49.97,0,0,0,0,0,0-1.86,3.72-7.17,3.72-9.03,0,0,0-25-49.98-25-49.98-1.68-3.36.76-7.31,4.52-7.31h49.99c3.75,0,6.2,3.95,4.52,7.31Z"/>
        </g>
      </g>
    </g>
  </g>
</svg>