<?xml version="1.0" encoding="UTF-8"?>
<svg id="Capa_1" data-name="Capa 1" xmlns="http://www.w3.org/2000/svg" viewBox="0 0 793.57 320.1">
  <defs>
    <style>
      .cls-1 {
        fill: #030304;
      }

      .cls-2 {
        fill: #ef7d16;
      }
    </style>
  </defs>
  <path class="cls-1" d="m259.17,150.63h-40.74V21.15h38.63v12.29c15.52-17,54.02-17.1,67.81,2.23,18.77-22.19,66.52-19.39,79.94,7.14,7.3,14.43,6.2,31.58,6.25,47.24.07,20.13,0,40.25,0,60.38h-38.97c0-19.95,0-39.9,0-59.86,0-13.28,1.32-36.39-19.07-33.54-18.81,2.63-18.9,21.73-18.92,36.15-.02,19.08,0,38.17,0,57.25h-38.97c0-19.15.02-38.31,0-57.46,0-12.6,3.07-35.93-16.05-36.09-17.41-.15-19.92,17.72-19.93,30.7-.01,19.3,0,38.59,0,57.89v5.17Z"/>
  <path class="cls-1" d="m14.61,21.05h37.4v9.61c21.01-8.97,41.54-13.83,63.17-2.81,20.14,10.26,30.03,31.08,32.02,52.9,4.86,53.34-49.5,88.96-94.75,58.51v29c-14.11,4.09-24.08,15.72-37.84,17.98V21.05Zm66.68,94.78c18.41-.09,27.58-14.07,27.67-29.73.13-24.87-28.89-40.72-47.68-21.75-16.84,17-6.94,53.55,20.01,51.48Z"/>
  <path class="cls-1" d="m491.14,177.8v-10.79h37.6v129.44h-37.69v-12.43c-13.4,15.68-38.68,15.66-56.83,9.21-21.82-7.76-34.55-27.67-37.98-49.86-7.28-47,30.31-90.22,79.93-73.45,5.18,1.75,9.83,5.1,14.98,7.87Zm-29.61,22.96c-16.06-.83-26.81,13.14-27.57,27-1.29,23.64,22.31,44.54,44.16,28.11,21.98-16.53,12.61-55.38-16.59-55.11Z"/>
  <path class="cls-1" d="m142.08,246.72H51.01c1.07,14.65,24.2,19.04,35.02,15.94,9.89-2.84,12.14-6.91,23.13-6.93,10.18-.02,20.35,0,30.53,0-10.91,32.82-47.83,46.45-79.95,39.34-33.27-7.36-52.43-36.34-49.98-69.71,5.3-72.05,120.06-78.65,132.5-7.69,1.69,9.62,1.46,19.19-.19,29.06Zm-90.21-30c16.12,0,32.23,0,48.34-.01.28,0,.56-.22.84-.35-5.98-23.73-42.82-22.31-49.17.37Z"/>
  <path class="cls-1" d="m197.21,296.39c-12.64,1.98-26.82.29-39.63.29v-128.55h37.32v9.9c22.91-17.56,67.18-15.36,79.89,13.59,6.22,14.16,5.31,30.59,5.37,45.67.07,19.7,0,39.4,0,59.11h-38.75c-.76-14.37-.19-28.87-.2-43.26,0-12.84,3.2-30.91-3.82-42.36-14.32-23.36-39.89-.57-40.1,19.31-.23,21.97-.07,43.94-.07,66.3Z"/>
  <path class="cls-2" d="m729.16,133.82c-32.06,1.75-58.26-22.44-56.36-59.8,1.52-29.86,22.28-53.9,58.17-53.1,30.01.67,55.12,22.53,53.84,60.42-.97,28.62-22.06,53.81-55.65,52.48Zm-.31-78.29c-3.23.46-6.53.64-9.68,1.44-11.57,2.93-19.34,14.94-15.84,26.8,3.98,13.5,19.25,17.09,31.55,15.17,30.46-4.75,22.05-42.62-6.04-43.41Z"/>
  <path class="cls-2" d="m782.78,299.47h-107.95c0-31.99-9.79-75.47,27.76-88.85,29.22-10.41,80.78-1.67,80.24,37.75-.23,16.93-.05,33.86-.05,51.1Zm-28.98-26.95c0-6.34.28-12.16-.08-17.95-1.12-18.12-19.95-23.51-35.3-19.67-19.61,4.91-15.44,20.87-15.44,37.62h50.81Z"/>
  <path class="cls-1" d="m388.79,201.78h-30.53v94.62h-37.63v-93.86h-30.22v-34.47h98.38v33.71Z"/>
  <path class="cls-2" d="m546.14,50.57v-29.36c13-1.33,26.58-.41,39.65-.41,12.51,0,26.15-1.31,38.38,1.81,24.66,6.3,29.46,25.67,29.24,48.59-.2,21.04-6.33,37.22-28.24,42.73-24.47,6.15-53.83,1.9-78.92,1.9v-29.98c16.7,0,33.4-.14,50.11-.04,12.95.08,30.35-1.37,28.6-18.84-1.24-12.36-12.1-15.36-22.85-16.05-17.99-1.16-36.43-.06-54.46-.08-.32,0-.64-.11-1.49-.27Z"/>
  <path class="cls-2" d="m471.01,40.06c11.14,3.48,20.13,6.36,26.42,17.02,6.74,11.43,4.7,24.2,6.75,36.75,2.29,14.01,11.02,22.02,19.07,32.9,6.41,8.66,9.23,18.62-2.86,22.27-46.41,14-118.39-45.68-85.35-93.27,11.73,1.88,34.96,1.48,35.97-15.66Z"/>
  <path class="cls-2" d="m652.84,245.84c2.17,12.72,1.16,26.93-5.64,38.19-6.71,11.12-15.45,12.44-27,15.57-1.2-9.1-.29-18.89-.29-28.06,23.53-7.27,4.54-38.67-7.32-15.19-9.03,17.89-9.57,42.5-35.52,42.95-21.6.37-31.8-19.28-32.32-38.48-.27-10.07,2.2-21.19,8.46-29.29,6.38-8.25,14.76-6.43,21.76-11.66,2.84,5.03,3.89,19.59,2.01,25.08-1.8,5.26-6.59,4.91-9.13,10.24-2.42,5.08-1.36,13.44,4.7,15.37,8.48,2.7,12.17-8.67,14.6-14.49,6.22-14.85,9.44-32.96,27.71-36.8,20.56-4.31,30.57,10.1,37.97,26.57Z"/>
  <path class="cls-1" d="m200.93,150.69h-38.4V21.2h38.4v129.49Z"/>
  <path class="cls-2" d="m574.89,209.64h-28.64v-81.53h28.52v24.4h77.74v32.26c-14.67,0-29.34,0-44.01,0-4.54,0-33.27-2.63-32.69,2.96-.29,1.36-.81,2.71-.84,4.08-.11,5.94-.07,11.88-.08,17.82Z"/>
  <path class="cls-2" d="m674.2,154.02h108.34v33.38h-108.34v-33.38Z"/>
  <path class="cls-1" d="m471.01,40.06c-1.01,17.15-24.24,17.54-35.97,15.66,6.44-7.77,10.65-10.11,10.89-20.5.18-7.82,2.13-21.05,11.35-23.86,4-1.22,8.42-.64,8.95,4.46.5,4.85-5.26,7.75-6.99,11.8-5.05,11.81,3.11,11.87,11.77,12.43Z"/>
</svg>